<?xml version="1.0" encoding="UTF-8"?>
<!DOCTYPE svg PUBLIC "-//W3C//DTD SVG 1.0//EN" "http://www.w3.org/TR/2001/REC-SVG-20010904/DTD/svg10.dtd">
<!-- Creator: CorelDRAW 2021 (64-Bit) -->
<svg xmlns="http://www.w3.org/2000/svg" xml:space="preserve" width="23.3733mm" height="34.3959mm" version="1.0" style="shape-rendering:geometricPrecision; text-rendering:geometricPrecision; image-rendering:optimizeQuality; fill-rule:evenodd; clip-rule:evenodd"
viewBox="0 0 272.75 401.38"
 xmlns:xlink="http://www.w3.org/1999/xlink"
 xmlns:xodm="http://www.corel.com/coreldraw/odm/2003">
 <defs>
  <style type="text/css">
   <![CDATA[
    .str0 {stroke:black;stroke-width:6.92;stroke-linecap:round;stroke-linejoin:round;stroke-miterlimit:22.9256}
    .fil0 {fill:none}
    .fil1 {fill:white}
   ]]>
  </style>
 </defs>
 <g id="Capa_x0020_1">
  <metadata id="CorelCorpID_0Corel-Layer"/>
  <g id="_2422163163680">
   <rect class="fil0" x="2.27" y="3.46" width="267.02" height="395.2"/>
   <g>
    <rect class="fil1 str0" x="3.9" y="220.08" width="265.39" height="177.84"/>
    <polygon class="fil1 str0" points="57.26,3.46 83.98,111.22 110.7,218.99 57.3,219.04 3.9,219.09 30.58,111.28 "/>
    <polygon class="fil1 str0" points="215.34,3.46 242.06,111.22 268.79,218.99 215.38,219.04 161.98,219.09 188.66,111.27 "/>
    <polygon class="fil1 str0" points="138.13,3.71 164.85,111.47 191.57,219.24 138.17,219.29 84.77,219.34 111.45,111.52 "/>
    <rect class="fil0 str0" x="74.8" y="271.7" width="123.58" height="74.59"/>
    <line class="fil0 str0" x1="3.9" y1="219.09" x2="74.8" y2= "271.7" />
    <line class="fil0 str0" x1="74.8" y1="346.29" x2="3.46" y2= "397.48" />
    <line class="fil0 str0" x1="269.29" y1="220.08" x2="198.39" y2= "271.7" />
    <line class="fil0 str0" x1="198.39" y1="346.29" x2="266.58" y2= "395.21" />
    <line class="fil0 str0" x1="74.8" y1="309" x2="198.39" y2= "309" />
    <line class="fil0 str0" x1="117.37" y1="271.21" x2="117.37" y2= "345.8" />
    <line class="fil0 str0" x1="158.55" y1="271.7" x2="158.55" y2= "346.29" />
   </g>
  </g>
 </g>
</svg>
